# xmcd
#
# Track frame offsets: 
#        150
#        18955
#        37041
#        54377
#        71550
#        87372
#        114340
#        127240
#        150217
#        161222
#        172173
#        191902
#
# Disc length: 3016 seconds
#
# Revision: 0
# Processed by: cddbd v1.5.2PL0 Copyright (c) Steve Scherf et al.
# Submitted via: ExactAudioCopy v0.95b4
#
DISCID=a30bc60c
DTITLE=La maison Tellier - Second souffle
DYEAR=2007
DGENRE=Blues
TTITLE0=3 days in Amsterdam
TTITLE1=La second souffle
TTITLE2=Riverchild
TTITLE3=Petite angliche
TTITLE4=The last days of Gram Parsons
TTITLE5=Le grand départ
TTITLE6=Un beau jour pour mourir
TTITLE7=Cul-de-sac
TTITLE8=To a friend
TTITLE9=Thank god I'm a country girl
TTITLE10=Grève générale
TTITLE11=Les terres brunes
EXTD=
EXTT0=
EXTT1=
EXTT2=
EXTT3=
EXTT4=
EXTT5=
EXTT6=
EXTT7=
EXTT8=
EXTT9=
EXTT10=
EXTT11=
PLAYORDER=
